<mxfile host="app.diagrams.net" modified="2023-07-04T14:53:11.934Z" agent="Mozilla/5.0 (X11; Linux x86_64) AppleWebKit/537.36 (KHTML, like Gecko) Chrome/108.0.0.0 Safari/537.36" etag="xuSLvXHo0eIPSI8MGwHw" version="21.5.2" type="github">
  <diagram name="PÃ¡gina-1" id="yhrqLoXocR5tAU90KhDH">
    <mxGraphModel dx="1763" dy="854" grid="0" gridSize="10" guides="1" tooltips="1" connect="1" arrows="1" fold="1" page="0" pageScale="1" pageWidth="827" pageHeight="1169" background="#e8eedd" math="0" shadow="0">
      <root>
        <mxCell id="0" />
        <mxCell id="1" parent="0" />
        <mxCell id="97QDHkDUi-sa9f5NVffC-14" value="&lt;font color=&quot;#13180c&quot;&gt;EMPREGADO&lt;/font&gt;" style="shape=table;startSize=30;container=1;collapsible=1;childLayout=tableLayout;fixedRows=1;rowLines=0;fontStyle=1;align=center;resizeLast=1;html=1;fillColor=#bfdd7e;" vertex="1" parent="1">
          <mxGeometry x="-316" y="393" width="180" height="330" as="geometry" />
        </mxCell>
        <mxCell id="97QDHkDUi-sa9f5NVffC-15" value="" style="shape=tableRow;horizontal=0;startSize=0;swimlaneHead=0;swimlaneBody=0;fillColor=none;collapsible=0;dropTarget=0;points=[[0,0.5],[1,0.5]];portConstraint=eastwest;top=0;left=0;right=0;bottom=1;" vertex="1" parent="97QDHkDUi-sa9f5NVffC-14">
          <mxGeometry y="30" width="180" height="30" as="geometry" />
        </mxCell>
        <mxCell id="97QDHkDUi-sa9f5NVffC-16" value="PK" style="shape=partialRectangle;connectable=0;fillColor=#dacff2;top=0;left=0;bottom=0;right=0;fontStyle=1;overflow=hidden;whiteSpace=wrap;html=1;strokeColor=#dacff2;" vertex="1" parent="97QDHkDUi-sa9f5NVffC-15">
          <mxGeometry width="30" height="30" as="geometry">
            <mxRectangle width="30" height="30" as="alternateBounds" />
          </mxGeometry>
        </mxCell>
        <mxCell id="97QDHkDUi-sa9f5NVffC-17" value="ID-empregado" style="shape=partialRectangle;connectable=0;fillColor=#dacff2;top=0;left=0;bottom=0;right=0;align=left;spacingLeft=6;fontStyle=5;overflow=hidden;whiteSpace=wrap;html=1;strokeColor=#518e48;" vertex="1" parent="97QDHkDUi-sa9f5NVffC-15">
          <mxGeometry x="30" width="150" height="30" as="geometry">
            <mxRectangle width="150" height="30" as="alternateBounds" />
          </mxGeometry>
        </mxCell>
        <mxCell id="97QDHkDUi-sa9f5NVffC-18" value="" style="shape=tableRow;horizontal=0;startSize=0;swimlaneHead=0;swimlaneBody=0;fillColor=none;collapsible=0;dropTarget=0;points=[[0,0.5],[1,0.5]];portConstraint=eastwest;top=0;left=0;right=0;bottom=0;" vertex="1" parent="97QDHkDUi-sa9f5NVffC-14">
          <mxGeometry y="60" width="180" height="30" as="geometry" />
        </mxCell>
        <mxCell id="97QDHkDUi-sa9f5NVffC-19" value="" style="shape=partialRectangle;connectable=0;fillColor=none;top=0;left=0;bottom=0;right=0;editable=1;overflow=hidden;whiteSpace=wrap;html=1;" vertex="1" parent="97QDHkDUi-sa9f5NVffC-18">
          <mxGeometry width="30" height="30" as="geometry">
            <mxRectangle width="30" height="30" as="alternateBounds" />
          </mxGeometry>
        </mxCell>
        <mxCell id="97QDHkDUi-sa9f5NVffC-20" value="nome-empregado" style="shape=partialRectangle;connectable=0;fillColor=none;top=0;left=0;bottom=0;right=0;align=left;spacingLeft=6;overflow=hidden;whiteSpace=wrap;html=1;" vertex="1" parent="97QDHkDUi-sa9f5NVffC-18">
          <mxGeometry x="30" width="150" height="30" as="geometry">
            <mxRectangle width="150" height="30" as="alternateBounds" />
          </mxGeometry>
        </mxCell>
        <mxCell id="97QDHkDUi-sa9f5NVffC-21" value="" style="shape=tableRow;horizontal=0;startSize=0;swimlaneHead=0;swimlaneBody=0;fillColor=none;collapsible=0;dropTarget=0;points=[[0,0.5],[1,0.5]];portConstraint=eastwest;top=0;left=0;right=0;bottom=0;" vertex="1" parent="97QDHkDUi-sa9f5NVffC-14">
          <mxGeometry y="90" width="180" height="30" as="geometry" />
        </mxCell>
        <mxCell id="97QDHkDUi-sa9f5NVffC-22" value="" style="shape=partialRectangle;connectable=0;fillColor=none;top=0;left=0;bottom=0;right=0;editable=1;overflow=hidden;whiteSpace=wrap;html=1;" vertex="1" parent="97QDHkDUi-sa9f5NVffC-21">
          <mxGeometry width="30" height="30" as="geometry">
            <mxRectangle width="30" height="30" as="alternateBounds" />
          </mxGeometry>
        </mxCell>
        <mxCell id="97QDHkDUi-sa9f5NVffC-23" value="ID-departamento" style="shape=partialRectangle;connectable=0;fillColor=none;top=0;left=0;bottom=0;right=0;align=left;spacingLeft=6;overflow=hidden;whiteSpace=wrap;html=1;" vertex="1" parent="97QDHkDUi-sa9f5NVffC-21">
          <mxGeometry x="30" width="150" height="30" as="geometry">
            <mxRectangle width="150" height="30" as="alternateBounds" />
          </mxGeometry>
        </mxCell>
        <mxCell id="97QDHkDUi-sa9f5NVffC-24" value="" style="shape=tableRow;horizontal=0;startSize=0;swimlaneHead=0;swimlaneBody=0;fillColor=none;collapsible=0;dropTarget=0;points=[[0,0.5],[1,0.5]];portConstraint=eastwest;top=0;left=0;right=0;bottom=0;" vertex="1" parent="97QDHkDUi-sa9f5NVffC-14">
          <mxGeometry y="120" width="180" height="30" as="geometry" />
        </mxCell>
        <mxCell id="97QDHkDUi-sa9f5NVffC-25" value="" style="shape=partialRectangle;connectable=0;fillColor=none;top=0;left=0;bottom=0;right=0;editable=1;overflow=hidden;whiteSpace=wrap;html=1;" vertex="1" parent="97QDHkDUi-sa9f5NVffC-24">
          <mxGeometry width="30" height="30" as="geometry">
            <mxRectangle width="30" height="30" as="alternateBounds" />
          </mxGeometry>
        </mxCell>
        <mxCell id="97QDHkDUi-sa9f5NVffC-26" value="nome-departamento" style="shape=partialRectangle;connectable=0;fillColor=none;top=0;left=0;bottom=0;right=0;align=left;spacingLeft=6;overflow=hidden;whiteSpace=wrap;html=1;" vertex="1" parent="97QDHkDUi-sa9f5NVffC-24">
          <mxGeometry x="30" width="150" height="30" as="geometry">
            <mxRectangle width="150" height="30" as="alternateBounds" />
          </mxGeometry>
        </mxCell>
        <mxCell id="97QDHkDUi-sa9f5NVffC-49" style="shape=tableRow;horizontal=0;startSize=0;swimlaneHead=0;swimlaneBody=0;fillColor=none;collapsible=0;dropTarget=0;points=[[0,0.5],[1,0.5]];portConstraint=eastwest;top=0;left=0;right=0;bottom=0;" vertex="1" parent="97QDHkDUi-sa9f5NVffC-14">
          <mxGeometry y="150" width="180" height="30" as="geometry" />
        </mxCell>
        <mxCell id="97QDHkDUi-sa9f5NVffC-50" style="shape=partialRectangle;connectable=0;fillColor=none;top=0;left=0;bottom=0;right=0;editable=1;overflow=hidden;whiteSpace=wrap;html=1;" vertex="1" parent="97QDHkDUi-sa9f5NVffC-49">
          <mxGeometry width="30" height="30" as="geometry">
            <mxRectangle width="30" height="30" as="alternateBounds" />
          </mxGeometry>
        </mxCell>
        <mxCell id="97QDHkDUi-sa9f5NVffC-51" value="ID-departamento" style="shape=partialRectangle;connectable=0;fillColor=none;top=0;left=0;bottom=0;right=0;align=left;spacingLeft=6;overflow=hidden;whiteSpace=wrap;html=1;" vertex="1" parent="97QDHkDUi-sa9f5NVffC-49">
          <mxGeometry x="30" width="150" height="30" as="geometry">
            <mxRectangle width="150" height="30" as="alternateBounds" />
          </mxGeometry>
        </mxCell>
        <mxCell id="97QDHkDUi-sa9f5NVffC-28" style="shape=tableRow;horizontal=0;startSize=0;swimlaneHead=0;swimlaneBody=0;fillColor=none;collapsible=0;dropTarget=0;points=[[0,0.5],[1,0.5]];portConstraint=eastwest;top=0;left=0;right=0;bottom=0;" vertex="1" parent="97QDHkDUi-sa9f5NVffC-14">
          <mxGeometry y="180" width="180" height="30" as="geometry" />
        </mxCell>
        <mxCell id="97QDHkDUi-sa9f5NVffC-29" style="shape=partialRectangle;connectable=0;fillColor=none;top=0;left=0;bottom=0;right=0;editable=1;overflow=hidden;whiteSpace=wrap;html=1;" vertex="1" parent="97QDHkDUi-sa9f5NVffC-28">
          <mxGeometry width="30" height="30" as="geometry">
            <mxRectangle width="30" height="30" as="alternateBounds" />
          </mxGeometry>
        </mxCell>
        <mxCell id="97QDHkDUi-sa9f5NVffC-30" value="nome-gerente" style="shape=partialRectangle;connectable=0;fillColor=none;top=0;left=0;bottom=0;right=0;align=left;spacingLeft=6;overflow=hidden;whiteSpace=wrap;html=1;" vertex="1" parent="97QDHkDUi-sa9f5NVffC-28">
          <mxGeometry x="30" width="150" height="30" as="geometry">
            <mxRectangle width="150" height="30" as="alternateBounds" />
          </mxGeometry>
        </mxCell>
        <mxCell id="97QDHkDUi-sa9f5NVffC-31" style="shape=tableRow;horizontal=0;startSize=0;swimlaneHead=0;swimlaneBody=0;fillColor=none;collapsible=0;dropTarget=0;points=[[0,0.5],[1,0.5]];portConstraint=eastwest;top=0;left=0;right=0;bottom=0;" vertex="1" parent="97QDHkDUi-sa9f5NVffC-14">
          <mxGeometry y="210" width="180" height="30" as="geometry" />
        </mxCell>
        <mxCell id="97QDHkDUi-sa9f5NVffC-32" style="shape=partialRectangle;connectable=0;fillColor=none;top=0;left=0;bottom=0;right=0;editable=1;overflow=hidden;whiteSpace=wrap;html=1;" vertex="1" parent="97QDHkDUi-sa9f5NVffC-31">
          <mxGeometry width="30" height="30" as="geometry">
            <mxRectangle width="30" height="30" as="alternateBounds" />
          </mxGeometry>
        </mxCell>
        <mxCell id="97QDHkDUi-sa9f5NVffC-33" value="ID-projeto" style="shape=partialRectangle;connectable=0;fillColor=none;top=0;left=0;bottom=0;right=0;align=left;spacingLeft=6;overflow=hidden;whiteSpace=wrap;html=1;" vertex="1" parent="97QDHkDUi-sa9f5NVffC-31">
          <mxGeometry x="30" width="150" height="30" as="geometry">
            <mxRectangle width="150" height="30" as="alternateBounds" />
          </mxGeometry>
        </mxCell>
        <mxCell id="97QDHkDUi-sa9f5NVffC-34" style="shape=tableRow;horizontal=0;startSize=0;swimlaneHead=0;swimlaneBody=0;fillColor=none;collapsible=0;dropTarget=0;points=[[0,0.5],[1,0.5]];portConstraint=eastwest;top=0;left=0;right=0;bottom=0;" vertex="1" parent="97QDHkDUi-sa9f5NVffC-14">
          <mxGeometry y="240" width="180" height="30" as="geometry" />
        </mxCell>
        <mxCell id="97QDHkDUi-sa9f5NVffC-35" style="shape=partialRectangle;connectable=0;fillColor=none;top=0;left=0;bottom=0;right=0;editable=1;overflow=hidden;whiteSpace=wrap;html=1;" vertex="1" parent="97QDHkDUi-sa9f5NVffC-34">
          <mxGeometry width="30" height="30" as="geometry">
            <mxRectangle width="30" height="30" as="alternateBounds" />
          </mxGeometry>
        </mxCell>
        <mxCell id="97QDHkDUi-sa9f5NVffC-36" value="nome-projeto" style="shape=partialRectangle;connectable=0;fillColor=none;top=0;left=0;bottom=0;right=0;align=left;spacingLeft=6;overflow=hidden;whiteSpace=wrap;html=1;" vertex="1" parent="97QDHkDUi-sa9f5NVffC-34">
          <mxGeometry x="30" width="150" height="30" as="geometry">
            <mxRectangle width="150" height="30" as="alternateBounds" />
          </mxGeometry>
        </mxCell>
        <mxCell id="97QDHkDUi-sa9f5NVffC-37" style="shape=tableRow;horizontal=0;startSize=0;swimlaneHead=0;swimlaneBody=0;fillColor=none;collapsible=0;dropTarget=0;points=[[0,0.5],[1,0.5]];portConstraint=eastwest;top=0;left=0;right=0;bottom=0;" vertex="1" parent="97QDHkDUi-sa9f5NVffC-14">
          <mxGeometry y="270" width="180" height="30" as="geometry" />
        </mxCell>
        <mxCell id="97QDHkDUi-sa9f5NVffC-38" style="shape=partialRectangle;connectable=0;fillColor=none;top=0;left=0;bottom=0;right=0;editable=1;overflow=hidden;whiteSpace=wrap;html=1;" vertex="1" parent="97QDHkDUi-sa9f5NVffC-37">
          <mxGeometry width="30" height="30" as="geometry">
            <mxRectangle width="30" height="30" as="alternateBounds" />
          </mxGeometry>
        </mxCell>
        <mxCell id="97QDHkDUi-sa9f5NVffC-39" value="dia-inicio" style="shape=partialRectangle;connectable=0;fillColor=none;top=0;left=0;bottom=0;right=0;align=left;spacingLeft=6;overflow=hidden;whiteSpace=wrap;html=1;" vertex="1" parent="97QDHkDUi-sa9f5NVffC-37">
          <mxGeometry x="30" width="150" height="30" as="geometry">
            <mxRectangle width="150" height="30" as="alternateBounds" />
          </mxGeometry>
        </mxCell>
        <mxCell id="97QDHkDUi-sa9f5NVffC-46" style="shape=tableRow;horizontal=0;startSize=0;swimlaneHead=0;swimlaneBody=0;fillColor=none;collapsible=0;dropTarget=0;points=[[0,0.5],[1,0.5]];portConstraint=eastwest;top=0;left=0;right=0;bottom=0;" vertex="1" parent="97QDHkDUi-sa9f5NVffC-14">
          <mxGeometry y="300" width="180" height="30" as="geometry" />
        </mxCell>
        <mxCell id="97QDHkDUi-sa9f5NVffC-47" style="shape=partialRectangle;connectable=0;fillColor=none;top=0;left=0;bottom=0;right=0;editable=1;overflow=hidden;whiteSpace=wrap;html=1;" vertex="1" parent="97QDHkDUi-sa9f5NVffC-46">
          <mxGeometry width="30" height="30" as="geometry">
            <mxRectangle width="30" height="30" as="alternateBounds" />
          </mxGeometry>
        </mxCell>
        <mxCell id="97QDHkDUi-sa9f5NVffC-48" value="horas-trabalhadas" style="shape=partialRectangle;connectable=0;fillColor=none;top=0;left=0;bottom=0;right=0;align=left;spacingLeft=6;overflow=hidden;whiteSpace=wrap;html=1;" vertex="1" parent="97QDHkDUi-sa9f5NVffC-46">
          <mxGeometry x="30" width="150" height="30" as="geometry">
            <mxRectangle width="150" height="30" as="alternateBounds" />
          </mxGeometry>
        </mxCell>
        <mxCell id="97QDHkDUi-sa9f5NVffC-27" value="a) EMPREGADO (NÃºmero do Empregado,Nome do Empregado,NÃºmero do&lt;br&gt;Departamento,Nome do Departamento,NÃºmero do Gerente,Nome do Gerente,NÃºmero do&lt;br&gt;Projeto,Nome do Projeto,Dia de inÃ­cio do projeto,NÃºmero de horas trabalhadas no projeto)&lt;br&gt;&lt;br&gt; b) ORDEM_COMPRA&lt;br&gt;(cod_ordem_compra,data_emissÃ£o,cod_fornecedor,num_fornecedor,endereÃ§o_fornecedor,&lt;br&gt;cod_material(n vezes),descriÃ§Ã£o_material(n vezes),qtd_comprada(n vezes),valor_unitÃ¡rio(n&lt;br&gt;vezes),valo_total_item(n vezes),valor_total_ordem)&lt;br&gt;&lt;br&gt; c) NOTA_FISCAL&lt;br&gt;(Num_NF,SÃ©rie,Data_EmissÃ£o,Cod_cliente,Nome_Cliente,EndereÃ§o_Cliente,CGC_Cliente,&lt;br&gt;CÃ³digo_mercadoria,descriÃ§Ã£o_mercadoria,Quantidade vendida,preÃ§o de venda,total de&lt;br&gt;venda da mercadoria,total geral da nota)&lt;br&gt;&lt;br&gt; d) GESTÃOPROJETOS (Num Projeto,Num Empregado,Nome Projeto,Nome&lt;br&gt;Empregado,FunÃ§Ã£o,Salario,Horas)&lt;br&gt;&lt;br&gt; e) VENDEDOR&lt;br&gt;(Num_vendedor,Nome_vendedor,endereÃ§o_vendedor,telefone,cep,cidade,Num_produto,D&lt;br&gt;escriÃ§Ã£o_produto,estoque,PreÃ§o_unitÃ¡rio,Num_fatura,Quantidade_vendida,Total)" style="text;whiteSpace=wrap;html=1;" vertex="1" parent="1">
          <mxGeometry x="630" width="520" height="250" as="geometry" />
        </mxCell>
        <mxCell id="97QDHkDUi-sa9f5NVffC-52" value="EMPREGADO" style="shape=table;startSize=30;container=1;collapsible=0;childLayout=tableLayout;strokeColor=default;fontSize=16;fillColor=#BFDD7E;" vertex="1" parent="1">
          <mxGeometry x="27" y="393" width="827.9583333333335" height="190" as="geometry" />
        </mxCell>
        <mxCell id="97QDHkDUi-sa9f5NVffC-53" value="" style="shape=tableRow;horizontal=0;startSize=0;swimlaneHead=0;swimlaneBody=0;strokeColor=inherit;top=0;left=0;bottom=0;right=0;collapsible=0;dropTarget=0;fillColor=none;points=[[0,0.5],[1,0.5]];portConstraint=eastwest;fontSize=16;" vertex="1" parent="97QDHkDUi-sa9f5NVffC-52">
          <mxGeometry y="30" width="827.9583333333335" height="40" as="geometry" />
        </mxCell>
        <mxCell id="97QDHkDUi-sa9f5NVffC-54" value="&lt;b&gt;&lt;u&gt;ID-empregado&lt;/u&gt;&lt;/b&gt;" style="shape=partialRectangle;html=1;whiteSpace=wrap;connectable=0;strokeColor=inherit;overflow=hidden;fillColor=#DACFF2;top=0;left=0;bottom=0;right=0;pointerEvents=1;fontSize=16;" vertex="1" parent="97QDHkDUi-sa9f5NVffC-53">
          <mxGeometry width="133" height="40" as="geometry">
            <mxRectangle width="133" height="40" as="alternateBounds" />
          </mxGeometry>
        </mxCell>
        <mxCell id="97QDHkDUi-sa9f5NVffC-142" value="&lt;i&gt;ID-projeto&lt;/i&gt;" style="shape=partialRectangle;html=1;whiteSpace=wrap;connectable=0;strokeColor=inherit;overflow=hidden;fillColor=#F1CAD9;top=0;left=0;bottom=0;right=0;pointerEvents=1;fontSize=16;" vertex="1" parent="97QDHkDUi-sa9f5NVffC-53">
          <mxGeometry x="133" width="169" height="40" as="geometry">
            <mxRectangle width="169" height="40" as="alternateBounds" />
          </mxGeometry>
        </mxCell>
        <mxCell id="97QDHkDUi-sa9f5NVffC-56" value="&lt;i&gt;ID-departamento&lt;/i&gt;" style="shape=partialRectangle;html=1;whiteSpace=wrap;connectable=0;strokeColor=inherit;overflow=hidden;fillColor=#dff1e0;top=0;left=0;bottom=0;right=0;pointerEvents=1;fontSize=16;" vertex="1" parent="97QDHkDUi-sa9f5NVffC-53">
          <mxGeometry x="302" width="169" height="40" as="geometry">
            <mxRectangle width="169" height="40" as="alternateBounds" />
          </mxGeometry>
        </mxCell>
        <mxCell id="97QDHkDUi-sa9f5NVffC-78" value="nome-empregado" style="shape=partialRectangle;html=1;whiteSpace=wrap;connectable=0;strokeColor=inherit;overflow=hidden;fillColor=none;top=0;left=0;bottom=0;right=0;pointerEvents=1;fontSize=16;" vertex="1" parent="97QDHkDUi-sa9f5NVffC-53">
          <mxGeometry x="471" width="169" height="40" as="geometry">
            <mxRectangle width="169" height="40" as="alternateBounds" />
          </mxGeometry>
        </mxCell>
        <mxCell id="97QDHkDUi-sa9f5NVffC-82" value="sobrenome-empregado" style="shape=partialRectangle;html=1;whiteSpace=wrap;connectable=0;strokeColor=inherit;overflow=hidden;fillColor=none;top=0;left=0;bottom=0;right=0;pointerEvents=1;fontSize=16;" vertex="1" parent="97QDHkDUi-sa9f5NVffC-53">
          <mxGeometry x="640" width="188" height="40" as="geometry">
            <mxRectangle width="188" height="40" as="alternateBounds" />
          </mxGeometry>
        </mxCell>
        <mxCell id="97QDHkDUi-sa9f5NVffC-57" value="" style="shape=tableRow;horizontal=0;startSize=0;swimlaneHead=0;swimlaneBody=0;strokeColor=inherit;top=0;left=0;bottom=0;right=0;collapsible=0;dropTarget=0;fillColor=none;points=[[0,0.5],[1,0.5]];portConstraint=eastwest;fontSize=16;" vertex="1" parent="97QDHkDUi-sa9f5NVffC-52">
          <mxGeometry y="70" width="827.9583333333335" height="40" as="geometry" />
        </mxCell>
        <mxCell id="97QDHkDUi-sa9f5NVffC-58" value="E001" style="shape=partialRectangle;html=1;whiteSpace=wrap;connectable=0;strokeColor=inherit;overflow=hidden;fillColor=none;top=0;left=0;bottom=0;right=0;pointerEvents=1;fontSize=16;" vertex="1" parent="97QDHkDUi-sa9f5NVffC-57">
          <mxGeometry width="133" height="40" as="geometry">
            <mxRectangle width="133" height="40" as="alternateBounds" />
          </mxGeometry>
        </mxCell>
        <mxCell id="97QDHkDUi-sa9f5NVffC-143" value="P001" style="shape=partialRectangle;html=1;whiteSpace=wrap;connectable=0;strokeColor=inherit;overflow=hidden;fillColor=none;top=0;left=0;bottom=0;right=0;pointerEvents=1;fontSize=16;" vertex="1" parent="97QDHkDUi-sa9f5NVffC-57">
          <mxGeometry x="133" width="169" height="40" as="geometry">
            <mxRectangle width="169" height="40" as="alternateBounds" />
          </mxGeometry>
        </mxCell>
        <mxCell id="97QDHkDUi-sa9f5NVffC-60" value="D001" style="shape=partialRectangle;html=1;whiteSpace=wrap;connectable=0;strokeColor=inherit;overflow=hidden;fillColor=none;top=0;left=0;bottom=0;right=0;pointerEvents=1;fontSize=16;" vertex="1" parent="97QDHkDUi-sa9f5NVffC-57">
          <mxGeometry x="302" width="169" height="40" as="geometry">
            <mxRectangle width="169" height="40" as="alternateBounds" />
          </mxGeometry>
        </mxCell>
        <mxCell id="97QDHkDUi-sa9f5NVffC-79" value="Paulo" style="shape=partialRectangle;html=1;whiteSpace=wrap;connectable=0;strokeColor=inherit;overflow=hidden;fillColor=none;top=0;left=0;bottom=0;right=0;pointerEvents=1;fontSize=16;" vertex="1" parent="97QDHkDUi-sa9f5NVffC-57">
          <mxGeometry x="471" width="169" height="40" as="geometry">
            <mxRectangle width="169" height="40" as="alternateBounds" />
          </mxGeometry>
        </mxCell>
        <mxCell id="97QDHkDUi-sa9f5NVffC-83" value="Freire" style="shape=partialRectangle;html=1;whiteSpace=wrap;connectable=0;strokeColor=inherit;overflow=hidden;fillColor=none;top=0;left=0;bottom=0;right=0;pointerEvents=1;fontSize=16;" vertex="1" parent="97QDHkDUi-sa9f5NVffC-57">
          <mxGeometry x="640" width="188" height="40" as="geometry">
            <mxRectangle width="188" height="40" as="alternateBounds" />
          </mxGeometry>
        </mxCell>
        <mxCell id="97QDHkDUi-sa9f5NVffC-61" value="" style="shape=tableRow;horizontal=0;startSize=0;swimlaneHead=0;swimlaneBody=0;strokeColor=inherit;top=0;left=0;bottom=0;right=0;collapsible=0;dropTarget=0;fillColor=none;points=[[0,0.5],[1,0.5]];portConstraint=eastwest;fontSize=16;" vertex="1" parent="97QDHkDUi-sa9f5NVffC-52">
          <mxGeometry y="110" width="827.9583333333335" height="40" as="geometry" />
        </mxCell>
        <mxCell id="97QDHkDUi-sa9f5NVffC-62" value="E002" style="shape=partialRectangle;html=1;whiteSpace=wrap;connectable=0;strokeColor=inherit;overflow=hidden;fillColor=none;top=0;left=0;bottom=0;right=0;pointerEvents=1;fontSize=16;" vertex="1" parent="97QDHkDUi-sa9f5NVffC-61">
          <mxGeometry width="133" height="40" as="geometry">
            <mxRectangle width="133" height="40" as="alternateBounds" />
          </mxGeometry>
        </mxCell>
        <mxCell id="97QDHkDUi-sa9f5NVffC-144" value="P002" style="shape=partialRectangle;html=1;whiteSpace=wrap;connectable=0;strokeColor=inherit;overflow=hidden;fillColor=none;top=0;left=0;bottom=0;right=0;pointerEvents=1;fontSize=16;" vertex="1" parent="97QDHkDUi-sa9f5NVffC-61">
          <mxGeometry x="133" width="169" height="40" as="geometry">
            <mxRectangle width="169" height="40" as="alternateBounds" />
          </mxGeometry>
        </mxCell>
        <mxCell id="97QDHkDUi-sa9f5NVffC-64" value="D001" style="shape=partialRectangle;html=1;whiteSpace=wrap;connectable=0;strokeColor=inherit;overflow=hidden;fillColor=none;top=0;left=0;bottom=0;right=0;pointerEvents=1;fontSize=16;" vertex="1" parent="97QDHkDUi-sa9f5NVffC-61">
          <mxGeometry x="302" width="169" height="40" as="geometry">
            <mxRectangle width="169" height="40" as="alternateBounds" />
          </mxGeometry>
        </mxCell>
        <mxCell id="97QDHkDUi-sa9f5NVffC-80" value="Bruno" style="shape=partialRectangle;html=1;whiteSpace=wrap;connectable=0;strokeColor=inherit;overflow=hidden;fillColor=none;top=0;left=0;bottom=0;right=0;pointerEvents=1;fontSize=16;" vertex="1" parent="97QDHkDUi-sa9f5NVffC-61">
          <mxGeometry x="471" width="169" height="40" as="geometry">
            <mxRectangle width="169" height="40" as="alternateBounds" />
          </mxGeometry>
        </mxCell>
        <mxCell id="97QDHkDUi-sa9f5NVffC-84" value="Sorriso Maroto" style="shape=partialRectangle;html=1;whiteSpace=wrap;connectable=0;strokeColor=inherit;overflow=hidden;fillColor=none;top=0;left=0;bottom=0;right=0;pointerEvents=1;fontSize=16;" vertex="1" parent="97QDHkDUi-sa9f5NVffC-61">
          <mxGeometry x="640" width="188" height="40" as="geometry">
            <mxRectangle width="188" height="40" as="alternateBounds" />
          </mxGeometry>
        </mxCell>
        <mxCell id="97QDHkDUi-sa9f5NVffC-69" style="shape=tableRow;horizontal=0;startSize=0;swimlaneHead=0;swimlaneBody=0;strokeColor=inherit;top=0;left=0;bottom=0;right=0;collapsible=0;dropTarget=0;fillColor=none;points=[[0,0.5],[1,0.5]];portConstraint=eastwest;fontSize=16;" vertex="1" parent="97QDHkDUi-sa9f5NVffC-52">
          <mxGeometry y="150" width="827.9583333333335" height="40" as="geometry" />
        </mxCell>
        <mxCell id="97QDHkDUi-sa9f5NVffC-70" value="E003" style="shape=partialRectangle;html=1;whiteSpace=wrap;connectable=0;strokeColor=inherit;overflow=hidden;fillColor=none;top=0;left=0;bottom=0;right=0;pointerEvents=1;fontSize=16;" vertex="1" parent="97QDHkDUi-sa9f5NVffC-69">
          <mxGeometry width="133" height="40" as="geometry">
            <mxRectangle width="133" height="40" as="alternateBounds" />
          </mxGeometry>
        </mxCell>
        <mxCell id="97QDHkDUi-sa9f5NVffC-145" value="P002" style="shape=partialRectangle;html=1;whiteSpace=wrap;connectable=0;strokeColor=inherit;overflow=hidden;fillColor=none;top=0;left=0;bottom=0;right=0;pointerEvents=1;fontSize=16;" vertex="1" parent="97QDHkDUi-sa9f5NVffC-69">
          <mxGeometry x="133" width="169" height="40" as="geometry">
            <mxRectangle width="169" height="40" as="alternateBounds" />
          </mxGeometry>
        </mxCell>
        <mxCell id="97QDHkDUi-sa9f5NVffC-72" value="D003" style="shape=partialRectangle;html=1;whiteSpace=wrap;connectable=0;strokeColor=inherit;overflow=hidden;fillColor=none;top=0;left=0;bottom=0;right=0;pointerEvents=1;fontSize=16;" vertex="1" parent="97QDHkDUi-sa9f5NVffC-69">
          <mxGeometry x="302" width="169" height="40" as="geometry">
            <mxRectangle width="169" height="40" as="alternateBounds" />
          </mxGeometry>
        </mxCell>
        <mxCell id="97QDHkDUi-sa9f5NVffC-81" value="VÃ´lei" style="shape=partialRectangle;html=1;whiteSpace=wrap;connectable=0;strokeColor=inherit;overflow=hidden;fillColor=none;top=0;left=0;bottom=0;right=0;pointerEvents=1;fontSize=16;" vertex="1" parent="97QDHkDUi-sa9f5NVffC-69">
          <mxGeometry x="471" width="169" height="40" as="geometry">
            <mxRectangle width="169" height="40" as="alternateBounds" />
          </mxGeometry>
        </mxCell>
        <mxCell id="97QDHkDUi-sa9f5NVffC-85" value="Fernandes do Bicca" style="shape=partialRectangle;html=1;whiteSpace=wrap;connectable=0;strokeColor=inherit;overflow=hidden;fillColor=none;top=0;left=0;bottom=0;right=0;pointerEvents=1;fontSize=16;" vertex="1" parent="97QDHkDUi-sa9f5NVffC-69">
          <mxGeometry x="640" width="188" height="40" as="geometry">
            <mxRectangle width="188" height="40" as="alternateBounds" />
          </mxGeometry>
        </mxCell>
        <mxCell id="97QDHkDUi-sa9f5NVffC-65" value="" style="shape=flexArrow;endArrow=classic;html=1;rounded=0;width=20;endSize=9.957142857142857;" edge="1" parent="1">
          <mxGeometry width="50" height="50" relative="1" as="geometry">
            <mxPoint x="-97" y="491" as="sourcePoint" />
            <mxPoint x="-17" y="491" as="targetPoint" />
          </mxGeometry>
        </mxCell>
        <mxCell id="97QDHkDUi-sa9f5NVffC-102" value="PROJETO" style="shape=table;startSize=30;container=1;collapsible=0;childLayout=tableLayout;fillColor=#BFDD7E;" vertex="1" parent="1">
          <mxGeometry x="27" y="644" width="406" height="150" as="geometry" />
        </mxCell>
        <mxCell id="97QDHkDUi-sa9f5NVffC-103" value="" style="shape=tableRow;horizontal=0;startSize=0;swimlaneHead=0;swimlaneBody=0;strokeColor=inherit;top=0;left=0;bottom=0;right=0;collapsible=0;dropTarget=0;fillColor=none;points=[[0,0.5],[1,0.5]];portConstraint=eastwest;" vertex="1" parent="97QDHkDUi-sa9f5NVffC-102">
          <mxGeometry y="30" width="406" height="40" as="geometry" />
        </mxCell>
        <mxCell id="97QDHkDUi-sa9f5NVffC-104" value="ID-projeto" style="shape=partialRectangle;html=1;whiteSpace=wrap;connectable=0;strokeColor=inherit;overflow=hidden;fillColor=#F1CAD9;top=0;left=0;bottom=0;right=0;pointerEvents=1;fontStyle=5" vertex="1" parent="97QDHkDUi-sa9f5NVffC-103">
          <mxGeometry width="81" height="40" as="geometry">
            <mxRectangle width="81" height="40" as="alternateBounds" />
          </mxGeometry>
        </mxCell>
        <mxCell id="97QDHkDUi-sa9f5NVffC-115" value="&lt;i&gt;ID-departamento&lt;/i&gt;" style="shape=partialRectangle;html=1;whiteSpace=wrap;connectable=0;strokeColor=inherit;overflow=hidden;fillColor=#DFF1E0;top=0;left=0;bottom=0;right=0;pointerEvents=1;" vertex="1" parent="97QDHkDUi-sa9f5NVffC-103">
          <mxGeometry x="81" width="100" height="40" as="geometry">
            <mxRectangle width="100" height="40" as="alternateBounds" />
          </mxGeometry>
        </mxCell>
        <mxCell id="97QDHkDUi-sa9f5NVffC-105" value="nome-projeto" style="shape=partialRectangle;html=1;whiteSpace=wrap;connectable=0;strokeColor=inherit;overflow=hidden;fillColor=none;top=0;left=0;bottom=0;right=0;pointerEvents=1;" vertex="1" parent="97QDHkDUi-sa9f5NVffC-103">
          <mxGeometry x="181" width="100" height="40" as="geometry">
            <mxRectangle width="100" height="40" as="alternateBounds" />
          </mxGeometry>
        </mxCell>
        <mxCell id="97QDHkDUi-sa9f5NVffC-106" value="dia-inicio" style="shape=partialRectangle;html=1;whiteSpace=wrap;connectable=0;strokeColor=inherit;overflow=hidden;fillColor=none;top=0;left=0;bottom=0;right=0;pointerEvents=1;" vertex="1" parent="97QDHkDUi-sa9f5NVffC-103">
          <mxGeometry x="281" width="125" height="40" as="geometry">
            <mxRectangle width="125" height="40" as="alternateBounds" />
          </mxGeometry>
        </mxCell>
        <mxCell id="97QDHkDUi-sa9f5NVffC-107" value="" style="shape=tableRow;horizontal=0;startSize=0;swimlaneHead=0;swimlaneBody=0;strokeColor=inherit;top=0;left=0;bottom=0;right=0;collapsible=0;dropTarget=0;fillColor=none;points=[[0,0.5],[1,0.5]];portConstraint=eastwest;" vertex="1" parent="97QDHkDUi-sa9f5NVffC-102">
          <mxGeometry y="70" width="406" height="40" as="geometry" />
        </mxCell>
        <mxCell id="97QDHkDUi-sa9f5NVffC-108" value="P001" style="shape=partialRectangle;html=1;whiteSpace=wrap;connectable=0;strokeColor=inherit;overflow=hidden;fillColor=none;top=0;left=0;bottom=0;right=0;pointerEvents=1;" vertex="1" parent="97QDHkDUi-sa9f5NVffC-107">
          <mxGeometry width="81" height="40" as="geometry">
            <mxRectangle width="81" height="40" as="alternateBounds" />
          </mxGeometry>
        </mxCell>
        <mxCell id="97QDHkDUi-sa9f5NVffC-116" value="D003" style="shape=partialRectangle;html=1;whiteSpace=wrap;connectable=0;strokeColor=inherit;overflow=hidden;fillColor=none;top=0;left=0;bottom=0;right=0;pointerEvents=1;" vertex="1" parent="97QDHkDUi-sa9f5NVffC-107">
          <mxGeometry x="81" width="100" height="40" as="geometry">
            <mxRectangle width="100" height="40" as="alternateBounds" />
          </mxGeometry>
        </mxCell>
        <mxCell id="97QDHkDUi-sa9f5NVffC-109" value="Tecnomaker 4.0" style="shape=partialRectangle;html=1;whiteSpace=wrap;connectable=0;strokeColor=inherit;overflow=hidden;fillColor=none;top=0;left=0;bottom=0;right=0;pointerEvents=1;" vertex="1" parent="97QDHkDUi-sa9f5NVffC-107">
          <mxGeometry x="181" width="100" height="40" as="geometry">
            <mxRectangle width="100" height="40" as="alternateBounds" />
          </mxGeometry>
        </mxCell>
        <mxCell id="97QDHkDUi-sa9f5NVffC-110" value="23/03/2022" style="shape=partialRectangle;html=1;whiteSpace=wrap;connectable=0;strokeColor=inherit;overflow=hidden;fillColor=none;top=0;left=0;bottom=0;right=0;pointerEvents=1;" vertex="1" parent="97QDHkDUi-sa9f5NVffC-107">
          <mxGeometry x="281" width="125" height="40" as="geometry">
            <mxRectangle width="125" height="40" as="alternateBounds" />
          </mxGeometry>
        </mxCell>
        <mxCell id="97QDHkDUi-sa9f5NVffC-117" style="shape=tableRow;horizontal=0;startSize=0;swimlaneHead=0;swimlaneBody=0;strokeColor=inherit;top=0;left=0;bottom=0;right=0;collapsible=0;dropTarget=0;fillColor=none;points=[[0,0.5],[1,0.5]];portConstraint=eastwest;" vertex="1" parent="97QDHkDUi-sa9f5NVffC-102">
          <mxGeometry y="110" width="406" height="40" as="geometry" />
        </mxCell>
        <mxCell id="97QDHkDUi-sa9f5NVffC-118" value="P002" style="shape=partialRectangle;html=1;whiteSpace=wrap;connectable=0;strokeColor=inherit;overflow=hidden;fillColor=none;top=0;left=0;bottom=0;right=0;pointerEvents=1;" vertex="1" parent="97QDHkDUi-sa9f5NVffC-117">
          <mxGeometry width="81" height="40" as="geometry">
            <mxRectangle width="81" height="40" as="alternateBounds" />
          </mxGeometry>
        </mxCell>
        <mxCell id="97QDHkDUi-sa9f5NVffC-119" value="D001" style="shape=partialRectangle;html=1;whiteSpace=wrap;connectable=0;strokeColor=inherit;overflow=hidden;fillColor=none;top=0;left=0;bottom=0;right=0;pointerEvents=1;" vertex="1" parent="97QDHkDUi-sa9f5NVffC-117">
          <mxGeometry x="81" width="100" height="40" as="geometry">
            <mxRectangle width="100" height="40" as="alternateBounds" />
          </mxGeometry>
        </mxCell>
        <mxCell id="97QDHkDUi-sa9f5NVffC-120" value="IFECO" style="shape=partialRectangle;html=1;whiteSpace=wrap;connectable=0;strokeColor=inherit;overflow=hidden;fillColor=none;top=0;left=0;bottom=0;right=0;pointerEvents=1;" vertex="1" parent="97QDHkDUi-sa9f5NVffC-117">
          <mxGeometry x="181" width="100" height="40" as="geometry">
            <mxRectangle width="100" height="40" as="alternateBounds" />
          </mxGeometry>
        </mxCell>
        <mxCell id="97QDHkDUi-sa9f5NVffC-121" value="22/01/2020" style="shape=partialRectangle;html=1;whiteSpace=wrap;connectable=0;strokeColor=inherit;overflow=hidden;fillColor=none;top=0;left=0;bottom=0;right=0;pointerEvents=1;" vertex="1" parent="97QDHkDUi-sa9f5NVffC-117">
          <mxGeometry x="281" width="125" height="40" as="geometry">
            <mxRectangle width="125" height="40" as="alternateBounds" />
          </mxGeometry>
        </mxCell>
        <mxCell id="97QDHkDUi-sa9f5NVffC-123" value="DEPARTAMENTO" style="shape=table;startSize=30;container=1;collapsible=0;childLayout=tableLayout;fillColor=#BFDD7E;" vertex="1" parent="1">
          <mxGeometry x="-54.5" y="910" width="638.9565217391305" height="150" as="geometry" />
        </mxCell>
        <mxCell id="97QDHkDUi-sa9f5NVffC-124" value="" style="shape=tableRow;horizontal=0;startSize=0;swimlaneHead=0;swimlaneBody=0;strokeColor=inherit;top=0;left=0;bottom=0;right=0;collapsible=0;dropTarget=0;fillColor=none;points=[[0,0.5],[1,0.5]];portConstraint=eastwest;" vertex="1" parent="97QDHkDUi-sa9f5NVffC-123">
          <mxGeometry y="30" width="638.9565217391305" height="40" as="geometry" />
        </mxCell>
        <mxCell id="97QDHkDUi-sa9f5NVffC-125" value="ID-departamento" style="shape=partialRectangle;html=1;whiteSpace=wrap;connectable=0;strokeColor=inherit;overflow=hidden;fillColor=#DFF1E0;top=0;left=0;bottom=0;right=0;pointerEvents=1;fontStyle=5" vertex="1" parent="97QDHkDUi-sa9f5NVffC-124">
          <mxGeometry width="96" height="40" as="geometry">
            <mxRectangle width="96" height="40" as="alternateBounds" />
          </mxGeometry>
        </mxCell>
        <mxCell id="97QDHkDUi-sa9f5NVffC-186" value="&lt;i&gt;ID-gerente&lt;/i&gt;" style="shape=partialRectangle;html=1;whiteSpace=wrap;connectable=0;strokeColor=inherit;overflow=hidden;fillColor=#bdd9ef;top=0;left=0;bottom=0;right=0;pointerEvents=1;" vertex="1" parent="97QDHkDUi-sa9f5NVffC-124">
          <mxGeometry x="96" width="94" height="40" as="geometry">
            <mxRectangle width="94" height="40" as="alternateBounds" />
          </mxGeometry>
        </mxCell>
        <mxCell id="97QDHkDUi-sa9f5NVffC-126" value="&lt;i&gt;ID-projeto&lt;/i&gt;" style="shape=partialRectangle;html=1;whiteSpace=wrap;connectable=0;strokeColor=inherit;overflow=hidden;fillColor=#F1CAD9;top=0;left=0;bottom=0;right=0;pointerEvents=1;" vertex="1" parent="97QDHkDUi-sa9f5NVffC-124">
          <mxGeometry x="190" width="94" height="40" as="geometry">
            <mxRectangle width="94" height="40" as="alternateBounds" />
          </mxGeometry>
        </mxCell>
        <mxCell id="97QDHkDUi-sa9f5NVffC-127" value="nome-projeto" style="shape=partialRectangle;html=1;whiteSpace=wrap;connectable=0;strokeColor=inherit;overflow=hidden;fillColor=none;top=0;left=0;bottom=0;right=0;pointerEvents=1;" vertex="1" parent="97QDHkDUi-sa9f5NVffC-124">
          <mxGeometry x="284" width="91" height="40" as="geometry">
            <mxRectangle width="91" height="40" as="alternateBounds" />
          </mxGeometry>
        </mxCell>
        <mxCell id="97QDHkDUi-sa9f5NVffC-128" value="dia-inicio" style="shape=partialRectangle;html=1;whiteSpace=wrap;connectable=0;strokeColor=inherit;overflow=hidden;fillColor=none;top=0;left=0;bottom=0;right=0;pointerEvents=1;" vertex="1" parent="97QDHkDUi-sa9f5NVffC-124">
          <mxGeometry x="375" width="125" height="40" as="geometry">
            <mxRectangle width="125" height="40" as="alternateBounds" />
          </mxGeometry>
        </mxCell>
        <mxCell id="97QDHkDUi-sa9f5NVffC-129" value="horas-trabalhadas" style="shape=partialRectangle;html=1;whiteSpace=wrap;connectable=0;strokeColor=inherit;overflow=hidden;fillColor=none;top=0;left=0;bottom=0;right=0;pointerEvents=1;" vertex="1" parent="97QDHkDUi-sa9f5NVffC-124">
          <mxGeometry x="500" width="139" height="40" as="geometry">
            <mxRectangle width="139" height="40" as="alternateBounds" />
          </mxGeometry>
        </mxCell>
        <mxCell id="97QDHkDUi-sa9f5NVffC-130" value="" style="shape=tableRow;horizontal=0;startSize=0;swimlaneHead=0;swimlaneBody=0;strokeColor=inherit;top=0;left=0;bottom=0;right=0;collapsible=0;dropTarget=0;fillColor=none;points=[[0,0.5],[1,0.5]];portConstraint=eastwest;" vertex="1" parent="97QDHkDUi-sa9f5NVffC-123">
          <mxGeometry y="70" width="638.9565217391305" height="40" as="geometry" />
        </mxCell>
        <mxCell id="97QDHkDUi-sa9f5NVffC-131" value="D001" style="shape=partialRectangle;html=1;whiteSpace=wrap;connectable=0;strokeColor=inherit;overflow=hidden;fillColor=none;top=0;left=0;bottom=0;right=0;pointerEvents=1;" vertex="1" parent="97QDHkDUi-sa9f5NVffC-130">
          <mxGeometry width="96" height="40" as="geometry">
            <mxRectangle width="96" height="40" as="alternateBounds" />
          </mxGeometry>
        </mxCell>
        <mxCell id="97QDHkDUi-sa9f5NVffC-187" value="G001" style="shape=partialRectangle;html=1;whiteSpace=wrap;connectable=0;strokeColor=inherit;overflow=hidden;fillColor=none;top=0;left=0;bottom=0;right=0;pointerEvents=1;" vertex="1" parent="97QDHkDUi-sa9f5NVffC-130">
          <mxGeometry x="96" width="94" height="40" as="geometry">
            <mxRectangle width="94" height="40" as="alternateBounds" />
          </mxGeometry>
        </mxCell>
        <mxCell id="97QDHkDUi-sa9f5NVffC-132" value="P002" style="shape=partialRectangle;html=1;whiteSpace=wrap;connectable=0;strokeColor=inherit;overflow=hidden;fillColor=none;top=0;left=0;bottom=0;right=0;pointerEvents=1;" vertex="1" parent="97QDHkDUi-sa9f5NVffC-130">
          <mxGeometry x="190" width="94" height="40" as="geometry">
            <mxRectangle width="94" height="40" as="alternateBounds" />
          </mxGeometry>
        </mxCell>
        <mxCell id="97QDHkDUi-sa9f5NVffC-133" value="Tecnomaker 4.0" style="shape=partialRectangle;html=1;whiteSpace=wrap;connectable=0;strokeColor=inherit;overflow=hidden;fillColor=none;top=0;left=0;bottom=0;right=0;pointerEvents=1;" vertex="1" parent="97QDHkDUi-sa9f5NVffC-130">
          <mxGeometry x="284" width="91" height="40" as="geometry">
            <mxRectangle width="91" height="40" as="alternateBounds" />
          </mxGeometry>
        </mxCell>
        <mxCell id="97QDHkDUi-sa9f5NVffC-134" value="23/03/2022" style="shape=partialRectangle;html=1;whiteSpace=wrap;connectable=0;strokeColor=inherit;overflow=hidden;fillColor=none;top=0;left=0;bottom=0;right=0;pointerEvents=1;" vertex="1" parent="97QDHkDUi-sa9f5NVffC-130">
          <mxGeometry x="375" width="125" height="40" as="geometry">
            <mxRectangle width="125" height="40" as="alternateBounds" />
          </mxGeometry>
        </mxCell>
        <mxCell id="97QDHkDUi-sa9f5NVffC-135" value="200" style="shape=partialRectangle;html=1;whiteSpace=wrap;connectable=0;strokeColor=inherit;overflow=hidden;fillColor=none;top=0;left=0;bottom=0;right=0;pointerEvents=1;" vertex="1" parent="97QDHkDUi-sa9f5NVffC-130">
          <mxGeometry x="500" width="139" height="40" as="geometry">
            <mxRectangle width="139" height="40" as="alternateBounds" />
          </mxGeometry>
        </mxCell>
        <mxCell id="97QDHkDUi-sa9f5NVffC-136" style="shape=tableRow;horizontal=0;startSize=0;swimlaneHead=0;swimlaneBody=0;strokeColor=inherit;top=0;left=0;bottom=0;right=0;collapsible=0;dropTarget=0;fillColor=none;points=[[0,0.5],[1,0.5]];portConstraint=eastwest;" vertex="1" parent="97QDHkDUi-sa9f5NVffC-123">
          <mxGeometry y="110" width="638.9565217391305" height="40" as="geometry" />
        </mxCell>
        <mxCell id="97QDHkDUi-sa9f5NVffC-137" value="D003" style="shape=partialRectangle;html=1;whiteSpace=wrap;connectable=0;strokeColor=inherit;overflow=hidden;fillColor=none;top=0;left=0;bottom=0;right=0;pointerEvents=1;" vertex="1" parent="97QDHkDUi-sa9f5NVffC-136">
          <mxGeometry width="96" height="40" as="geometry">
            <mxRectangle width="96" height="40" as="alternateBounds" />
          </mxGeometry>
        </mxCell>
        <mxCell id="97QDHkDUi-sa9f5NVffC-188" value="G002" style="shape=partialRectangle;html=1;whiteSpace=wrap;connectable=0;strokeColor=inherit;overflow=hidden;fillColor=none;top=0;left=0;bottom=0;right=0;pointerEvents=1;" vertex="1" parent="97QDHkDUi-sa9f5NVffC-136">
          <mxGeometry x="96" width="94" height="40" as="geometry">
            <mxRectangle width="94" height="40" as="alternateBounds" />
          </mxGeometry>
        </mxCell>
        <mxCell id="97QDHkDUi-sa9f5NVffC-138" value="P001" style="shape=partialRectangle;html=1;whiteSpace=wrap;connectable=0;strokeColor=inherit;overflow=hidden;fillColor=none;top=0;left=0;bottom=0;right=0;pointerEvents=1;" vertex="1" parent="97QDHkDUi-sa9f5NVffC-136">
          <mxGeometry x="190" width="94" height="40" as="geometry">
            <mxRectangle width="94" height="40" as="alternateBounds" />
          </mxGeometry>
        </mxCell>
        <mxCell id="97QDHkDUi-sa9f5NVffC-139" value="IFECO" style="shape=partialRectangle;html=1;whiteSpace=wrap;connectable=0;strokeColor=inherit;overflow=hidden;fillColor=none;top=0;left=0;bottom=0;right=0;pointerEvents=1;" vertex="1" parent="97QDHkDUi-sa9f5NVffC-136">
          <mxGeometry x="284" width="91" height="40" as="geometry">
            <mxRectangle width="91" height="40" as="alternateBounds" />
          </mxGeometry>
        </mxCell>
        <mxCell id="97QDHkDUi-sa9f5NVffC-140" value="22/01/2020" style="shape=partialRectangle;html=1;whiteSpace=wrap;connectable=0;strokeColor=inherit;overflow=hidden;fillColor=none;top=0;left=0;bottom=0;right=0;pointerEvents=1;" vertex="1" parent="97QDHkDUi-sa9f5NVffC-136">
          <mxGeometry x="375" width="125" height="40" as="geometry">
            <mxRectangle width="125" height="40" as="alternateBounds" />
          </mxGeometry>
        </mxCell>
        <mxCell id="97QDHkDUi-sa9f5NVffC-141" value="780" style="shape=partialRectangle;html=1;whiteSpace=wrap;connectable=0;strokeColor=inherit;overflow=hidden;fillColor=none;top=0;left=0;bottom=0;right=0;pointerEvents=1;" vertex="1" parent="97QDHkDUi-sa9f5NVffC-136">
          <mxGeometry x="500" width="139" height="40" as="geometry">
            <mxRectangle width="139" height="40" as="alternateBounds" />
          </mxGeometry>
        </mxCell>
        <mxCell id="97QDHkDUi-sa9f5NVffC-146" value="EMPREGADO-PROJETO" style="shape=table;startSize=30;container=1;collapsible=0;childLayout=tableLayout;fillColor=#BFDD7E;" vertex="1" parent="1">
          <mxGeometry x="584.46" y="644" width="270.5" height="190" as="geometry" />
        </mxCell>
        <mxCell id="97QDHkDUi-sa9f5NVffC-147" value="" style="shape=tableRow;horizontal=0;startSize=0;swimlaneHead=0;swimlaneBody=0;strokeColor=inherit;top=0;left=0;bottom=0;right=0;collapsible=0;dropTarget=0;fillColor=none;points=[[0,0.5],[1,0.5]];portConstraint=eastwest;" vertex="1" parent="97QDHkDUi-sa9f5NVffC-146">
          <mxGeometry y="30" width="270.5" height="40" as="geometry" />
        </mxCell>
        <mxCell id="97QDHkDUi-sa9f5NVffC-148" value="ID-empregado" style="shape=partialRectangle;html=1;whiteSpace=wrap;connectable=0;strokeColor=inherit;overflow=hidden;fillColor=#DACFF2;top=0;left=0;bottom=0;right=0;pointerEvents=1;fontStyle=2" vertex="1" parent="97QDHkDUi-sa9f5NVffC-147">
          <mxGeometry width="69" height="40" as="geometry">
            <mxRectangle width="69" height="40" as="alternateBounds" />
          </mxGeometry>
        </mxCell>
        <mxCell id="97QDHkDUi-sa9f5NVffC-149" value="ID-projeto" style="shape=partialRectangle;html=1;whiteSpace=wrap;connectable=0;strokeColor=inherit;overflow=hidden;fillColor=#F1CAD9;top=0;left=0;bottom=0;right=0;pointerEvents=1;fontStyle=2" vertex="1" parent="97QDHkDUi-sa9f5NVffC-147">
          <mxGeometry x="69" width="85" height="40" as="geometry">
            <mxRectangle width="85" height="40" as="alternateBounds" />
          </mxGeometry>
        </mxCell>
        <mxCell id="97QDHkDUi-sa9f5NVffC-150" value="horas-trabalhadas" style="shape=partialRectangle;html=1;whiteSpace=wrap;connectable=0;strokeColor=inherit;overflow=hidden;fillColor=none;top=0;left=0;bottom=0;right=0;pointerEvents=1;" vertex="1" parent="97QDHkDUi-sa9f5NVffC-147">
          <mxGeometry x="154" width="117" height="40" as="geometry">
            <mxRectangle width="117" height="40" as="alternateBounds" />
          </mxGeometry>
        </mxCell>
        <mxCell id="97QDHkDUi-sa9f5NVffC-151" value="" style="shape=tableRow;horizontal=0;startSize=0;swimlaneHead=0;swimlaneBody=0;strokeColor=inherit;top=0;left=0;bottom=0;right=0;collapsible=0;dropTarget=0;fillColor=none;points=[[0,0.5],[1,0.5]];portConstraint=eastwest;" vertex="1" parent="97QDHkDUi-sa9f5NVffC-146">
          <mxGeometry y="70" width="270.5" height="40" as="geometry" />
        </mxCell>
        <mxCell id="97QDHkDUi-sa9f5NVffC-152" value="E001" style="shape=partialRectangle;html=1;whiteSpace=wrap;connectable=0;strokeColor=inherit;overflow=hidden;fillColor=none;top=0;left=0;bottom=0;right=0;pointerEvents=1;" vertex="1" parent="97QDHkDUi-sa9f5NVffC-151">
          <mxGeometry width="69" height="40" as="geometry">
            <mxRectangle width="69" height="40" as="alternateBounds" />
          </mxGeometry>
        </mxCell>
        <mxCell id="97QDHkDUi-sa9f5NVffC-153" value="P002" style="shape=partialRectangle;html=1;whiteSpace=wrap;connectable=0;strokeColor=inherit;overflow=hidden;fillColor=none;top=0;left=0;bottom=0;right=0;pointerEvents=1;" vertex="1" parent="97QDHkDUi-sa9f5NVffC-151">
          <mxGeometry x="69" width="85" height="40" as="geometry">
            <mxRectangle width="85" height="40" as="alternateBounds" />
          </mxGeometry>
        </mxCell>
        <mxCell id="97QDHkDUi-sa9f5NVffC-154" value="310" style="shape=partialRectangle;html=1;whiteSpace=wrap;connectable=0;strokeColor=inherit;overflow=hidden;fillColor=none;top=0;left=0;bottom=0;right=0;pointerEvents=1;" vertex="1" parent="97QDHkDUi-sa9f5NVffC-151">
          <mxGeometry x="154" width="117" height="40" as="geometry">
            <mxRectangle width="117" height="40" as="alternateBounds" />
          </mxGeometry>
        </mxCell>
        <mxCell id="97QDHkDUi-sa9f5NVffC-155" value="" style="shape=tableRow;horizontal=0;startSize=0;swimlaneHead=0;swimlaneBody=0;strokeColor=inherit;top=0;left=0;bottom=0;right=0;collapsible=0;dropTarget=0;fillColor=none;points=[[0,0.5],[1,0.5]];portConstraint=eastwest;" vertex="1" parent="97QDHkDUi-sa9f5NVffC-146">
          <mxGeometry y="110" width="270.5" height="40" as="geometry" />
        </mxCell>
        <mxCell id="97QDHkDUi-sa9f5NVffC-156" value="E002" style="shape=partialRectangle;html=1;whiteSpace=wrap;connectable=0;strokeColor=inherit;overflow=hidden;fillColor=none;top=0;left=0;bottom=0;right=0;pointerEvents=1;" vertex="1" parent="97QDHkDUi-sa9f5NVffC-155">
          <mxGeometry width="69" height="40" as="geometry">
            <mxRectangle width="69" height="40" as="alternateBounds" />
          </mxGeometry>
        </mxCell>
        <mxCell id="97QDHkDUi-sa9f5NVffC-157" value="P002" style="shape=partialRectangle;html=1;whiteSpace=wrap;connectable=0;strokeColor=inherit;overflow=hidden;fillColor=none;top=0;left=0;bottom=0;right=0;pointerEvents=1;" vertex="1" parent="97QDHkDUi-sa9f5NVffC-155">
          <mxGeometry x="69" width="85" height="40" as="geometry">
            <mxRectangle width="85" height="40" as="alternateBounds" />
          </mxGeometry>
        </mxCell>
        <mxCell id="97QDHkDUi-sa9f5NVffC-158" value="134" style="shape=partialRectangle;html=1;whiteSpace=wrap;connectable=0;strokeColor=inherit;overflow=hidden;fillColor=none;top=0;left=0;bottom=0;right=0;pointerEvents=1;" vertex="1" parent="97QDHkDUi-sa9f5NVffC-155">
          <mxGeometry x="154" width="117" height="40" as="geometry">
            <mxRectangle width="117" height="40" as="alternateBounds" />
          </mxGeometry>
        </mxCell>
        <mxCell id="97QDHkDUi-sa9f5NVffC-159" style="shape=tableRow;horizontal=0;startSize=0;swimlaneHead=0;swimlaneBody=0;strokeColor=inherit;top=0;left=0;bottom=0;right=0;collapsible=0;dropTarget=0;fillColor=none;points=[[0,0.5],[1,0.5]];portConstraint=eastwest;" vertex="1" parent="97QDHkDUi-sa9f5NVffC-146">
          <mxGeometry y="150" width="270.5" height="40" as="geometry" />
        </mxCell>
        <mxCell id="97QDHkDUi-sa9f5NVffC-160" value="E003" style="shape=partialRectangle;html=1;whiteSpace=wrap;connectable=0;strokeColor=inherit;overflow=hidden;fillColor=none;top=0;left=0;bottom=0;right=0;pointerEvents=1;" vertex="1" parent="97QDHkDUi-sa9f5NVffC-159">
          <mxGeometry width="69" height="40" as="geometry">
            <mxRectangle width="69" height="40" as="alternateBounds" />
          </mxGeometry>
        </mxCell>
        <mxCell id="97QDHkDUi-sa9f5NVffC-161" value="P001" style="shape=partialRectangle;html=1;whiteSpace=wrap;connectable=0;strokeColor=inherit;overflow=hidden;fillColor=none;top=0;left=0;bottom=0;right=0;pointerEvents=1;" vertex="1" parent="97QDHkDUi-sa9f5NVffC-159">
          <mxGeometry x="69" width="85" height="40" as="geometry">
            <mxRectangle width="85" height="40" as="alternateBounds" />
          </mxGeometry>
        </mxCell>
        <mxCell id="97QDHkDUi-sa9f5NVffC-162" value="200" style="shape=partialRectangle;html=1;whiteSpace=wrap;connectable=0;strokeColor=inherit;overflow=hidden;fillColor=none;top=0;left=0;bottom=0;right=0;pointerEvents=1;" vertex="1" parent="97QDHkDUi-sa9f5NVffC-159">
          <mxGeometry x="154" width="117" height="40" as="geometry">
            <mxRectangle width="117" height="40" as="alternateBounds" />
          </mxGeometry>
        </mxCell>
        <mxCell id="97QDHkDUi-sa9f5NVffC-166" value="EMPREGADO-DEPARTAMENTO" style="shape=table;startSize=30;container=1;collapsible=0;childLayout=tableLayout;fillColor=#BFDD7E;" vertex="1" parent="1">
          <mxGeometry x="650.96" y="870" width="204" height="190" as="geometry" />
        </mxCell>
        <mxCell id="97QDHkDUi-sa9f5NVffC-167" value="" style="shape=tableRow;horizontal=0;startSize=0;swimlaneHead=0;swimlaneBody=0;strokeColor=inherit;top=0;left=0;bottom=0;right=0;collapsible=0;dropTarget=0;fillColor=none;points=[[0,0.5],[1,0.5]];portConstraint=eastwest;" vertex="1" parent="97QDHkDUi-sa9f5NVffC-166">
          <mxGeometry y="30" width="204" height="40" as="geometry" />
        </mxCell>
        <mxCell id="97QDHkDUi-sa9f5NVffC-168" value="ID-departamento" style="shape=partialRectangle;html=1;whiteSpace=wrap;connectable=0;strokeColor=inherit;overflow=hidden;fillColor=#DFF1E0;top=0;left=0;bottom=0;right=0;pointerEvents=1;fontStyle=2" vertex="1" parent="97QDHkDUi-sa9f5NVffC-167">
          <mxGeometry width="86" height="40" as="geometry">
            <mxRectangle width="86" height="40" as="alternateBounds" />
          </mxGeometry>
        </mxCell>
        <mxCell id="97QDHkDUi-sa9f5NVffC-169" value="ID-empregado" style="shape=partialRectangle;html=1;whiteSpace=wrap;connectable=0;strokeColor=inherit;overflow=hidden;fillColor=#DACFF2;top=0;left=0;bottom=0;right=0;pointerEvents=1;fontStyle=2" vertex="1" parent="97QDHkDUi-sa9f5NVffC-167">
          <mxGeometry x="86" width="118" height="40" as="geometry">
            <mxRectangle width="118" height="40" as="alternateBounds" />
          </mxGeometry>
        </mxCell>
        <mxCell id="97QDHkDUi-sa9f5NVffC-171" value="" style="shape=tableRow;horizontal=0;startSize=0;swimlaneHead=0;swimlaneBody=0;strokeColor=inherit;top=0;left=0;bottom=0;right=0;collapsible=0;dropTarget=0;fillColor=none;points=[[0,0.5],[1,0.5]];portConstraint=eastwest;" vertex="1" parent="97QDHkDUi-sa9f5NVffC-166">
          <mxGeometry y="70" width="204" height="40" as="geometry" />
        </mxCell>
        <mxCell id="97QDHkDUi-sa9f5NVffC-172" value="D001" style="shape=partialRectangle;html=1;whiteSpace=wrap;connectable=0;strokeColor=inherit;overflow=hidden;fillColor=none;top=0;left=0;bottom=0;right=0;pointerEvents=1;" vertex="1" parent="97QDHkDUi-sa9f5NVffC-171">
          <mxGeometry width="86" height="40" as="geometry">
            <mxRectangle width="86" height="40" as="alternateBounds" />
          </mxGeometry>
        </mxCell>
        <mxCell id="97QDHkDUi-sa9f5NVffC-173" value="E001" style="shape=partialRectangle;html=1;whiteSpace=wrap;connectable=0;strokeColor=inherit;overflow=hidden;fillColor=none;top=0;left=0;bottom=0;right=0;pointerEvents=1;" vertex="1" parent="97QDHkDUi-sa9f5NVffC-171">
          <mxGeometry x="86" width="118" height="40" as="geometry">
            <mxRectangle width="118" height="40" as="alternateBounds" />
          </mxGeometry>
        </mxCell>
        <mxCell id="97QDHkDUi-sa9f5NVffC-175" value="" style="shape=tableRow;horizontal=0;startSize=0;swimlaneHead=0;swimlaneBody=0;strokeColor=inherit;top=0;left=0;bottom=0;right=0;collapsible=0;dropTarget=0;fillColor=none;points=[[0,0.5],[1,0.5]];portConstraint=eastwest;" vertex="1" parent="97QDHkDUi-sa9f5NVffC-166">
          <mxGeometry y="110" width="204" height="40" as="geometry" />
        </mxCell>
        <mxCell id="97QDHkDUi-sa9f5NVffC-176" value="D001" style="shape=partialRectangle;html=1;whiteSpace=wrap;connectable=0;strokeColor=inherit;overflow=hidden;fillColor=none;top=0;left=0;bottom=0;right=0;pointerEvents=1;" vertex="1" parent="97QDHkDUi-sa9f5NVffC-175">
          <mxGeometry width="86" height="40" as="geometry">
            <mxRectangle width="86" height="40" as="alternateBounds" />
          </mxGeometry>
        </mxCell>
        <mxCell id="97QDHkDUi-sa9f5NVffC-177" value="E002" style="shape=partialRectangle;html=1;whiteSpace=wrap;connectable=0;strokeColor=inherit;overflow=hidden;fillColor=none;top=0;left=0;bottom=0;right=0;pointerEvents=1;" vertex="1" parent="97QDHkDUi-sa9f5NVffC-175">
          <mxGeometry x="86" width="118" height="40" as="geometry">
            <mxRectangle width="118" height="40" as="alternateBounds" />
          </mxGeometry>
        </mxCell>
        <mxCell id="97QDHkDUi-sa9f5NVffC-179" style="shape=tableRow;horizontal=0;startSize=0;swimlaneHead=0;swimlaneBody=0;strokeColor=inherit;top=0;left=0;bottom=0;right=0;collapsible=0;dropTarget=0;fillColor=none;points=[[0,0.5],[1,0.5]];portConstraint=eastwest;" vertex="1" parent="97QDHkDUi-sa9f5NVffC-166">
          <mxGeometry y="150" width="204" height="40" as="geometry" />
        </mxCell>
        <mxCell id="97QDHkDUi-sa9f5NVffC-180" value="D003" style="shape=partialRectangle;html=1;whiteSpace=wrap;connectable=0;strokeColor=inherit;overflow=hidden;fillColor=none;top=0;left=0;bottom=0;right=0;pointerEvents=1;" vertex="1" parent="97QDHkDUi-sa9f5NVffC-179">
          <mxGeometry width="86" height="40" as="geometry">
            <mxRectangle width="86" height="40" as="alternateBounds" />
          </mxGeometry>
        </mxCell>
        <mxCell id="97QDHkDUi-sa9f5NVffC-181" value="E003" style="shape=partialRectangle;html=1;whiteSpace=wrap;connectable=0;strokeColor=inherit;overflow=hidden;fillColor=none;top=0;left=0;bottom=0;right=0;pointerEvents=1;" vertex="1" parent="97QDHkDUi-sa9f5NVffC-179">
          <mxGeometry x="86" width="118" height="40" as="geometry">
            <mxRectangle width="118" height="40" as="alternateBounds" />
          </mxGeometry>
        </mxCell>
        <mxCell id="97QDHkDUi-sa9f5NVffC-189" value="GERENTE" style="shape=table;startSize=30;container=1;collapsible=0;childLayout=tableLayout;fillColor=#BFDD7E;" vertex="1" parent="1">
          <mxGeometry x="256.00000000000006" y="1158" width="387.5" height="150" as="geometry" />
        </mxCell>
        <mxCell id="97QDHkDUi-sa9f5NVffC-190" value="" style="shape=tableRow;horizontal=0;startSize=0;swimlaneHead=0;swimlaneBody=0;strokeColor=inherit;top=0;left=0;bottom=0;right=0;collapsible=0;dropTarget=0;fillColor=none;points=[[0,0.5],[1,0.5]];portConstraint=eastwest;" vertex="1" parent="97QDHkDUi-sa9f5NVffC-189">
          <mxGeometry y="30" width="387.5" height="40" as="geometry" />
        </mxCell>
        <mxCell id="97QDHkDUi-sa9f5NVffC-191" value="&lt;b&gt;&lt;u&gt;ID-gerente&lt;/u&gt;&lt;/b&gt;" style="shape=partialRectangle;html=1;whiteSpace=wrap;connectable=0;strokeColor=inherit;overflow=hidden;fillColor=#BDD9EF;top=0;left=0;bottom=0;right=0;pointerEvents=1;fontStyle=2" vertex="1" parent="97QDHkDUi-sa9f5NVffC-190">
          <mxGeometry width="69" height="40" as="geometry">
            <mxRectangle width="69" height="40" as="alternateBounds" />
          </mxGeometry>
        </mxCell>
        <mxCell id="97QDHkDUi-sa9f5NVffC-192" value="ID-departamento" style="shape=partialRectangle;html=1;whiteSpace=wrap;connectable=0;strokeColor=inherit;overflow=hidden;fillColor=#DFF1E0;top=0;left=0;bottom=0;right=0;pointerEvents=1;fontStyle=2" vertex="1" parent="97QDHkDUi-sa9f5NVffC-190">
          <mxGeometry x="69" width="85" height="40" as="geometry">
            <mxRectangle width="85" height="40" as="alternateBounds" />
          </mxGeometry>
        </mxCell>
        <mxCell id="97QDHkDUi-sa9f5NVffC-206" value="nome-gerente" style="shape=partialRectangle;html=1;whiteSpace=wrap;connectable=0;strokeColor=inherit;overflow=hidden;fillColor=none;top=0;left=0;bottom=0;right=0;pointerEvents=1;" vertex="1" parent="97QDHkDUi-sa9f5NVffC-190">
          <mxGeometry x="154" width="117" height="40" as="geometry">
            <mxRectangle width="117" height="40" as="alternateBounds" />
          </mxGeometry>
        </mxCell>
        <mxCell id="97QDHkDUi-sa9f5NVffC-209" value="sobrenome-gerente" style="shape=partialRectangle;html=1;whiteSpace=wrap;connectable=0;strokeColor=inherit;overflow=hidden;fillColor=none;top=0;left=0;bottom=0;right=0;pointerEvents=1;" vertex="1" parent="97QDHkDUi-sa9f5NVffC-190">
          <mxGeometry x="271" width="117" height="40" as="geometry">
            <mxRectangle width="117" height="40" as="alternateBounds" />
          </mxGeometry>
        </mxCell>
        <mxCell id="97QDHkDUi-sa9f5NVffC-194" value="" style="shape=tableRow;horizontal=0;startSize=0;swimlaneHead=0;swimlaneBody=0;strokeColor=inherit;top=0;left=0;bottom=0;right=0;collapsible=0;dropTarget=0;fillColor=none;points=[[0,0.5],[1,0.5]];portConstraint=eastwest;" vertex="1" parent="97QDHkDUi-sa9f5NVffC-189">
          <mxGeometry y="70" width="387.5" height="40" as="geometry" />
        </mxCell>
        <mxCell id="97QDHkDUi-sa9f5NVffC-195" value="G001" style="shape=partialRectangle;html=1;whiteSpace=wrap;connectable=0;strokeColor=inherit;overflow=hidden;fillColor=none;top=0;left=0;bottom=0;right=0;pointerEvents=1;" vertex="1" parent="97QDHkDUi-sa9f5NVffC-194">
          <mxGeometry width="69" height="40" as="geometry">
            <mxRectangle width="69" height="40" as="alternateBounds" />
          </mxGeometry>
        </mxCell>
        <mxCell id="97QDHkDUi-sa9f5NVffC-196" value="D001" style="shape=partialRectangle;html=1;whiteSpace=wrap;connectable=0;strokeColor=inherit;overflow=hidden;fillColor=none;top=0;left=0;bottom=0;right=0;pointerEvents=1;" vertex="1" parent="97QDHkDUi-sa9f5NVffC-194">
          <mxGeometry x="69" width="85" height="40" as="geometry">
            <mxRectangle width="85" height="40" as="alternateBounds" />
          </mxGeometry>
        </mxCell>
        <mxCell id="97QDHkDUi-sa9f5NVffC-207" value="Marcos" style="shape=partialRectangle;html=1;whiteSpace=wrap;connectable=0;strokeColor=inherit;overflow=hidden;fillColor=none;top=0;left=0;bottom=0;right=0;pointerEvents=1;" vertex="1" parent="97QDHkDUi-sa9f5NVffC-194">
          <mxGeometry x="154" width="117" height="40" as="geometry">
            <mxRectangle width="117" height="40" as="alternateBounds" />
          </mxGeometry>
        </mxCell>
        <mxCell id="97QDHkDUi-sa9f5NVffC-210" value="Caldas" style="shape=partialRectangle;html=1;whiteSpace=wrap;connectable=0;strokeColor=inherit;overflow=hidden;fillColor=none;top=0;left=0;bottom=0;right=0;pointerEvents=1;" vertex="1" parent="97QDHkDUi-sa9f5NVffC-194">
          <mxGeometry x="271" width="117" height="40" as="geometry">
            <mxRectangle width="117" height="40" as="alternateBounds" />
          </mxGeometry>
        </mxCell>
        <mxCell id="97QDHkDUi-sa9f5NVffC-198" value="" style="shape=tableRow;horizontal=0;startSize=0;swimlaneHead=0;swimlaneBody=0;strokeColor=inherit;top=0;left=0;bottom=0;right=0;collapsible=0;dropTarget=0;fillColor=none;points=[[0,0.5],[1,0.5]];portConstraint=eastwest;" vertex="1" parent="97QDHkDUi-sa9f5NVffC-189">
          <mxGeometry y="110" width="387.5" height="40" as="geometry" />
        </mxCell>
        <mxCell id="97QDHkDUi-sa9f5NVffC-199" value="G002" style="shape=partialRectangle;html=1;whiteSpace=wrap;connectable=0;strokeColor=inherit;overflow=hidden;fillColor=none;top=0;left=0;bottom=0;right=0;pointerEvents=1;" vertex="1" parent="97QDHkDUi-sa9f5NVffC-198">
          <mxGeometry width="69" height="40" as="geometry">
            <mxRectangle width="69" height="40" as="alternateBounds" />
          </mxGeometry>
        </mxCell>
        <mxCell id="97QDHkDUi-sa9f5NVffC-200" value="D003" style="shape=partialRectangle;html=1;whiteSpace=wrap;connectable=0;strokeColor=inherit;overflow=hidden;fillColor=none;top=0;left=0;bottom=0;right=0;pointerEvents=1;" vertex="1" parent="97QDHkDUi-sa9f5NVffC-198">
          <mxGeometry x="69" width="85" height="40" as="geometry">
            <mxRectangle width="85" height="40" as="alternateBounds" />
          </mxGeometry>
        </mxCell>
        <mxCell id="97QDHkDUi-sa9f5NVffC-208" value="JoÃ£o" style="shape=partialRectangle;html=1;whiteSpace=wrap;connectable=0;strokeColor=inherit;overflow=hidden;fillColor=none;top=0;left=0;bottom=0;right=0;pointerEvents=1;" vertex="1" parent="97QDHkDUi-sa9f5NVffC-198">
          <mxGeometry x="154" width="117" height="40" as="geometry">
            <mxRectangle width="117" height="40" as="alternateBounds" />
          </mxGeometry>
        </mxCell>
        <mxCell id="97QDHkDUi-sa9f5NVffC-211" value="Borges" style="shape=partialRectangle;html=1;whiteSpace=wrap;connectable=0;strokeColor=inherit;overflow=hidden;fillColor=none;top=0;left=0;bottom=0;right=0;pointerEvents=1;" vertex="1" parent="97QDHkDUi-sa9f5NVffC-198">
          <mxGeometry x="271" width="117" height="40" as="geometry">
            <mxRectangle width="117" height="40" as="alternateBounds" />
          </mxGeometry>
        </mxCell>
      </root>
    </mxGraphModel>
  </diagram>
</mxfile>
